<?xml version="1.0" encoding="UTF-8"?>
<svg id="Layer_1" data-name="Layer 1" xmlns="http://www.w3.org/2000/svg" version="1.1" viewBox="0 0 65 65">
  <defs>
    <style>
      .cls-1 {
        fill: #fff;
        stroke-width: 0px;
      }
    </style>
  </defs>
  <path id="stop" class="cls-1" d="M28.9,16.9c.9.9,1.4,2,1.4,3.4v27.5c-.6.3-1.4.6-2.5,1-1,.3-2.1.5-3.2.5-2.1,0-3.6-.4-4.5-1.3-.9-.9-1.4-2-1.4-3.4v-27.5c.6-.4,1.4-.7,2.5-1,1-.3,2.1-.5,3.2-.5,2.1,0,3.6.4,4.5,1.3ZM44.9,16.9c-.9-.9-2.4-1.3-4.5-1.3-1.1,0-2.2.2-3.2.5-1,.3-1.8.7-2.5,1v27.5c0,1.4.5,2.6,1.4,3.4.9.9,2.4,1.3,4.5,1.3,1.1,0,2.2-.2,3.2-.5,1-.3,1.8-.7,2.5-1v-27.5c0-1.4-.5-2.6-1.4-3.4Z"/>
</svg>