<?xml version="1.0" encoding="UTF-8"?>
<svg id="Layer_1" data-name="Layer 1" xmlns="http://www.w3.org/2000/svg" version="1.1" viewBox="0 0 65 65">
  <defs>
    <style>
      .cls-1 {
        fill: #fff;
        stroke-width: 0px;
      }
    </style>
  </defs>
  <path id="E-mail" class="cls-1" d="M44.4,17.4c.9,0,1.8.2,2.7.5,0,0,0,0,0,.1.1,1.1-.2,2-.8,2.6l-11.6,11.6c-.6.6-1.6.9-2.6.8-1.2-.1-2.4-.7-3.4-1.7l-9.1-9.1c-1-1-1.6-2.2-1.7-3.4,0-.3,0-.6,0-1,.8-.3,1.7-.5,2.7-.5h23.8ZM50.3,20.1c-.3,1.1-.8,2.1-1.6,2.9l-11.6,11.6c-1.2,1.2-2.7,1.8-4.5,1.8s-.6,0-.9,0c-2-.2-3.9-1.2-5.4-2.7l-9.1-9.1c-1.3-1.3-2.1-2.9-2.5-4.5-1.1,1.3-1.8,3-1.8,4.9v15c0,4.2,3.4,7.6,7.6,7.6h23.8c4.2,0,7.6-3.4,7.6-7.6v-15c0-1.9-.7-3.6-1.8-4.9Z"/>
</svg>