<?xml version="1.0" encoding="UTF-8"?>
<svg id="Layer_1" data-name="Layer 1" xmlns="http://www.w3.org/2000/svg" version="1.1" viewBox="0 0 65 65">
  <defs>
    <style>
      .cls-1 {
        fill: #fff;
        stroke-width: 0px;
      }
    </style>
  </defs>
  <path id="search" class="cls-1" d="M18,47.4c1.6,1.6,2.7,2.1,3.5,2.3-2.3,1.2-4.5,1.6-6.1,0s-1.1-3.7.1-6.1c.2.8.8,2.1,2.4,3.7ZM50.6,28.5c0,7.9-6.4,14.3-14.3,14.3s-3.6-.4-5.3-1c-.1.2-.3.3-.4.5-2,2-4.6,4.5-7.2,6.3-.7,0-2.1-.3-4.1-2.4s-2.4-3.7-2.5-4.4c1.7-2.4,4-5,6.1-7.1,0,0,.2-.2.3-.3-.8-1.8-1.2-3.7-1.2-5.8,0-7.9,6.4-14.3,14.3-14.3s14.3,6.4,14.3,14.3ZM45.6,28.5c0-5.1-4.2-9.3-9.3-9.3s-9.3,4.2-9.3,9.3,4.2,9.3,9.3,9.3,9.3-4.2,9.3-9.3Z"/>
</svg>