<?xml version="1.0" encoding="UTF-8"?>
<svg id="Layer_1" data-name="Layer 1" xmlns="http://www.w3.org/2000/svg" version="1.1" viewBox="0 0 65 65">
  <defs>
    <style>
      .cls-1 {
        fill: #fff;
        stroke-width: 0px;
      }
    </style>
  </defs>
  <path id="lock" class="cls-1" d="M45.8,27.5c-.7-.7-1.5-1.2-2.4-1.5v-3.3c-.1-2.9-1.3-5.5-3.3-7.3-1.9-1.9-4.5-3-7.4-3s-5.5,1.1-7.4,3c-1.9,1.9-3.2,4.4-3.3,7.3v3.2c-1.1.3-2,.9-2.8,1.7-1.2,1.2-1.9,2.8-1.9,4.6v5.5c0,4.1,1.7,7.8,4.4,10.6,2.7,2.7,6.4,4.4,10.6,4.4h.6c4.1,0,7.8-1.7,10.6-4.4,2.7-2.7,4.4-6.4,4.4-10.6v-5.5c0-1.8-.7-3.4-1.9-4.6ZM29.1,18.9c.9-.9,2.2-1.4,3.6-1.4s2.7.5,3.6,1.4c.9.9,1.5,2.1,1.6,3.5v2.3s-10.4,0-10.4,0v-2.2c0-1.4.7-2.6,1.6-3.5ZM36.6,42.3c.1.8,0,1.6-.6,2.2s-1.2.9-2,.9h-3.1c-.8,0-1.5-.3-2-.9s-.7-1.4-.6-2.2l.7-3.9c0-.1,0-.2-.1-.3-.8-.8-1.3-1.9-1.4-3-.2-2.7,1.9-5.1,4.6-5.3,2.8-.2,5.2,2.1,5.2,4.9,0,1.3-.5,2.5-1.4,3.4,0,0-.1.2-.1.3l.7,3.9Z"/>
</svg>