<?xml version="1.0" encoding="UTF-8"?>
<svg id="Layer_1" data-name="Layer 1" xmlns="http://www.w3.org/2000/svg" version="1.1" viewBox="0 0 65 65">
  <defs>
    <style>
      .cls-1 {
        fill: #fff;
        stroke-width: 0px;
      }
    </style>
  </defs>
  <path id="checkmark" class="cls-1" d="M53.6,25c-.2-.7-.5-1.5-1-2.5s-1.2-1.8-2-2.6c-1.5-1.5-2.9-2.3-4.2-2.3-1.3,0-2.5.5-4.5,1.5l-13.9,13.9-5.9-6.9c-1-1-2.2-1.5-3.5-1.5-1.3,0-2.7.8-4.2,2.3-.8.8-1.5,1.7-2,2.6s-.8,1.8-1,2.5l10.5,10.5c.1.2,4.5,4.5,5.8,4.9s3,0,4.1-1l5.5-5.1,16.3-16.3Z"/>
</svg>