<?xml version="1.0" encoding="UTF-8"?>
<svg id="Layer_1" data-name="Layer 1" xmlns="http://www.w3.org/2000/svg" version="1.1" viewBox="0 0 65 65">
  <defs>
    <style>
      .cls-1 {
        fill: #fff;
        stroke-width: 0px;
      }
    </style>
  </defs>
  <path id="wifi" class="cls-1" d="M32.5,13.6c-7.5,0-14.5,2.1-20.5,5.7-1.2.7-1.5,2.2-.7,3.3l1,1.4c.7.9,2,1.2,3,.6,5-3,10.9-4.7,17.2-4.7s12.2,1.7,17.2,4.7,2.3.4,3-.6l1-1.4c.8-1.1.5-2.6-.7-3.3-6-3.6-13-5.7-20.5-5.7ZM32.5,24c-5.2,0-10,1.3-14.2,3.7-1.2.7-1.5,2.2-.7,3.3l1,1.4c.7.9,1.9,1.2,2.9.6,3.3-1.8,7.1-2.8,11.1-2.8s7.8,1,11.1,2.8,2.2.3,2.9-.6l1-1.4c.8-1.1.5-2.7-.7-3.3-4.2-2.3-9.1-3.7-14.2-3.7ZM32.5,34.4c-2.8,0-5.4.6-7.8,1.6s-1.7,2.3-.9,3.4l1,1.4c.6.8,1.7,1.1,2.7.7,1.5-.6,3.2-.9,4.9-.9s3.4.3,4.9.9,2.1,0,2.7-.7l1-1.4c.9-1.2.4-2.8-.9-3.4-2.4-1.1-5-1.6-7.8-1.6ZM36.4,47.5c0,2.2-1.7,3.9-3.9,3.9s-3.9-1.7-3.9-3.9,1.7-3.9,3.9-3.9,3.9,1.7,3.9,3.9Z"/>
</svg>