<?xml version="1.0" encoding="UTF-8"?>
<svg id="Layer_1" data-name="Layer 1" xmlns="http://www.w3.org/2000/svg" version="1.1" viewBox="0 0 65 65">
  <defs>
    <style>
      .cls-1 {
        fill: #fff;
        stroke-width: 0px;
      }
    </style>
  </defs>
  <path id="level-list" class="cls-1" d="M51.5,30.1c.2.7.3,1.5.3,2.3,0,1.5-.3,2.5-.9,3.2s-1.4,1-2.4,1h-23.2c-.2-.4-.4-1-.7-1.7-.2-.7-.4-1.5-.4-2.3,0-1.5.3-2.5.9-3.2.6-.7,1.4-1,2.4-1h23.2c.3.4.5,1,.7,1.7ZM25.3,24.4h23.2c1,0,1.8-.3,2.4-1s.9-1.7.9-3.2c0-.8-.1-1.6-.3-2.3-.2-.7-.5-1.3-.7-1.7h-23.2c-1,0-1.8.3-2.4,1-.6.7-.9,1.7-.9,3.2,0,.8.1,1.6.4,2.3.2.7.5,1.3.7,1.7ZM50.7,40.6h-23.2c-1,0-1.8.3-2.4,1-.6.7-.9,1.7-.9,3.2,0,.8.1,1.6.4,2.3.2.7.5,1.3.7,1.7h23.2c1,0,1.8-.3,2.4-1s.9-1.7.9-3.2c0-.8-.1-1.6-.3-2.3-.2-.7-.5-1.3-.7-1.7ZM19.7,28.4h-3.2c-1,0-1.8.3-2.4,1-.6.7-.9,1.7-.9,3.2,0,.8.1,1.6.4,2.3.2.7.5,1.3.7,1.7h3.2c1,0,1.8-.3,2.4-1s.9-1.7.9-3.2c0-.8-.1-1.6-.3-2.3-.2-.7-.5-1.3-.7-1.7ZM19.7,16.3h-3.2c-1,0-1.8.3-2.4,1-.6.7-.9,1.7-.9,3.2,0,.8.1,1.6.4,2.3.2.7.5,1.3.7,1.7h3.2c1,0,1.8-.3,2.4-1s.9-1.7.9-3.2c0-.8-.1-1.6-.3-2.3-.2-.7-.5-1.3-.7-1.7ZM19.7,40.6h-3.2c-1,0-1.8.3-2.4,1-.6.7-.9,1.7-.9,3.2,0,.8.1,1.6.4,2.3.2.7.5,1.3.7,1.7h3.2c1,0,1.8-.3,2.4-1s.9-1.7.9-3.2c0-.8-.1-1.6-.3-2.3-.2-.7-.5-1.3-.7-1.7Z"/>
</svg>