<?xml version="1.0" encoding="UTF-8"?>
<svg id="Layer_1" data-name="Layer 1" xmlns="http://www.w3.org/2000/svg" version="1.1" viewBox="0 0 65 65">
  <defs>
    <style>
      .cls-1 {
        fill: #fff;
        stroke-width: 0px;
      }
    </style>
  </defs>
  <path id="alert" class="cls-1" d="M32.4,37.2c-.9,0-1.7-.1-2.5-.4-.8-.3-1.4-.5-1.9-.8l-1-17.6c0-1.1.3-2.1,1.1-2.7,1.3-1,2.9-1,4.6-1,.9,0,2.7.1,3.5.4.8.2,1.4.5,1.9.8l-1,17.6c0,1.1-.4,2-1.1,2.7-.7.7-1.9,1-3.6,1ZM27.5,45.2c0,2.8,2.2,5,5,5s5-2.2,5-5-2.2-5-5-5-5,2.2-5,5Z"/>
</svg>