<?xml version="1.0" encoding="UTF-8"?>
<svg id="Layer_1" data-name="Layer 1" xmlns="http://www.w3.org/2000/svg" version="1.1" viewBox="0 0 65 65">
  <defs>
    <style>
      .cls-1 {
        fill: #fff;
        stroke-width: 0px;
      }
    </style>
  </defs>
  <path id="help" class="cls-1" d="M48.4,50.8s-5.7-3.5-3.1-8.5c2.8-3.1,4.6-7.2,4.6-11.7,0-9.6-7.8-17.3-17.3-17.3s-17.3,7.8-17.3,17.3,7.8,17.3,17.3,17.3,3.1-.2,4.5-.6c1.1,1.7,4.3,5.4,10.6,4.3,1.5-.3.7-.7.7-.7ZM34.2,38.7c-.5.5-1.1.7-2,.7s-1.5-.2-2-.7c-.5-.5-.7-1.1-.7-1.9s.2-1.4.7-1.9c.5-.5,1.1-.7,2-.7s1.5.2,2,.7c.5.5.7,1.1.7,1.9s-.2,1.4-.7,1.9ZM33.2,32.5l-2.9.6c-.3-.2-.6-.5-.9-.9-.3-.4-.4-1-.4-1.6s.2-1,.5-1.3c.3-.3.8-.5,1.4-.7l2.2-.5c.9-.2,1.4-.7,1.4-1.4s-.2-.7-.5-.9c-.3-.3-.9-.4-1.8-.4s-1.5,0-2.2.3c-.7.2-1.2.4-1.6.7-.3-.2-.6-.5-.8-.9-.2-.3-.3-.8-.3-1.3s.1-.9.4-1.3c.3-.4.7-.7,1.2-.9.5-.2,1.1-.4,1.8-.5s1.4-.2,2.3-.2c2.2,0,3.9.5,5,1.5,1.1,1,1.7,2.3,1.7,3.9,0,3-2.1,4.9-6.4,5.8Z"/>
</svg>