<?xml version="1.0" encoding="UTF-8"?>
<svg id="Layer_1" data-name="Layer 1" xmlns="http://www.w3.org/2000/svg" version="1.1" viewBox="0 0 65 65">
  <defs>
    <style>
      .cls-1 {
        fill: #fff;
        stroke-width: 0px;
      }
    </style>
  </defs>
  <path id="profiles" class="cls-1" d="M34.7,34.9c3.6,5,6.2,12.1,4.4,15.2-3,5.1-20.1,4.7-23.7,0-2.2-2.9.5-10.2,4.3-15.3,2.2,1.5,4.8,2.3,7.6,2.3s5.3-.8,7.4-2.2ZM27.3,14.8c-4.8,0-8.7,3.9-8.7,8.7s3.9,8.7,8.7,8.7,8.7-3.9,8.7-8.7-3.9-8.7-8.7-8.7ZM45.5,31.3c-1.7,1.1-3.6,1.8-5.7,2.1,2.7,4.2,5.7,10.8,4.8,16.2,2.5-.6,4.5-1.6,5.3-3,1.9-3.1-.7-10.2-4.4-15.2ZM41,23.5c0,1.7-.3,3.3-.9,4.8,4-1,7-4.7,6.6-9.1s-3.9-7.7-8.1-8-2.8.2-4,.7c3.8,2.4,6.4,6.7,6.4,11.6Z"/>
</svg>