<?xml version="1.0" encoding="UTF-8"?>
<svg id="Layer_1" data-name="Layer 1" xmlns="http://www.w3.org/2000/svg" version="1.1" viewBox="0 0 65 65">
  <defs>
    <style>
      .cls-1 {
        fill: #fff;
        stroke-width: 0px;
      }
    </style>
  </defs>
  <path id="chat" class="cls-1" d="M48.4,50.8s-5.7-3.5-3.1-8.5c2.8-3.1,4.6-7.2,4.6-11.7,0-9.6-7.8-17.3-17.3-17.3s-17.3,7.8-17.3,17.3,7.8,17.3,17.3,17.3,3.1-.2,4.5-.6c1.1,1.7,4.3,5.4,10.6,4.3,1.5-.3.7-.7.7-.7ZM41,27.2c1.6,0,2.9,1.3,2.9,2.9s-1.3,2.9-2.9,2.9-2.9-1.3-2.9-2.9,1.3-2.9,2.9-2.9ZM24.8,33.1c-1.6,0-2.9-1.3-2.9-2.9s1.3-2.9,2.9-2.9,2.9,1.3,2.9,2.9-1.3,2.9-2.9,2.9ZM32.9,33.1c-1.6,0-2.9-1.3-2.9-2.9s1.3-2.9,2.9-2.9,2.9,1.3,2.9,2.9-1.3,2.9-2.9,2.9Z"/>
</svg>