<?xml version="1.0" encoding="UTF-8"?>
<svg id="Layer_1" data-name="Layer 1" xmlns="http://www.w3.org/2000/svg" version="1.1" viewBox="0 0 65 65">
  <defs>
    <style>
      .cls-1 {
        fill: #fff;
        stroke-width: 0px;
      }
    </style>
  </defs>
  <path id="bell" class="cls-1" d="M27.4,50.3h10.2c0,2.8-2.3,5.1-5.1,5.1s-5.1-2.3-5.1-5.1ZM47.8,40.3c.2-2.2.4-5.3.4-6.7s2-17.1-10.6-19c0-2.8-2.3-5-5.1-5s-5.1,2.2-5.1,5c-11.4,2-10.6,17.2-10.6,18.7s.2,4.7.4,7c-1.3,0-2.3,1.2-2.3,2.5v3c0,1.4,1.1,2.5,2.5,2.5h30.3c1.4,0,2.5-1.1,2.5-2.5v-3c0-1.3-1-2.4-2.3-2.5Z"/>
</svg>