<?xml version="1.0" encoding="UTF-8"?>
<svg id="Layer_1" data-name="Layer 1" xmlns="http://www.w3.org/2000/svg" version="1.1" viewBox="0 0 65 65">
  <defs>
    <style>
      .cls-1 {
        fill: #fff;
        stroke-width: 0px;
      }
    </style>
  </defs>
  <path id="gift" class="cls-1" d="M14.9,23.6h14.1v10.1h-14.1c-1.3,0-2.4-1.1-2.4-2.4v-5.2c0-1.3,1.1-2.4,2.4-2.4ZM50.1,23.6h-14.1v10.1h14.1c1.3,0,2.4-1.1,2.4-2.4v-5.2c0-1.3-1.1-2.4-2.4-2.4ZM15,39.1l1,11.3c0,1.3,1.1,2.4,2.4,2.4h10.6v-16.1h-11.6c-1.3,0-2.4,1.1-2.4,2.4ZM47.6,36.6h-11.6v16.1h10.6c1.3,0,2.4-1.1,2.4-2.4l1-11.3c0-1.3-1.1-2.4-2.4-2.4ZM32.9,21.6c-.1,0-.3,0-.4-.1-.1,0-.3.1-.4.1,0,0-1.7.1-3.6.1-3.4,0-4.6-.4-5.1-.7-2.3-1.3-3.1-4.1-1.8-6.4.8-1.5,2.4-2.4,4.1-2.4s1.6.2,2.3.6c1.6.9,3.6,4.3,4.6,6.2,1-1.8,3-5.3,4.6-6.2.7-.4,1.5-.6,2.3-.6,1.7,0,3.3.9,4.1,2.4,1.3,2.3.4,5.1-1.8,6.4-.6.3-1.7.7-5.1.7s-3.6-.1-3.6-.1ZM35.5,19c.4,0,.9,0,1.4,0,2.4,0,3.1-.3,3.2-.4.9-.5,1.3-1.7.8-2.7-.3-.6-1-1-1.7-1s-.7,0-.9.2c-.6.3-1.7,2-2.7,3.7ZM29.5,19c-1-1.7-2.1-3.4-2.7-3.7-.3-.2-.6-.2-.9-.2-.7,0-1.4.4-1.7,1-.5.9-.2,2.1.8,2.7.2,0,.8.4,3.2.4s1,0,1.4,0Z"/>
</svg>