<?xml version="1.0" encoding="UTF-8"?>
<svg id="Layer_1" data-name="Layer 1" xmlns="http://www.w3.org/2000/svg" version="1.1" viewBox="0 0 65 65">
  <defs>
    <style>
      .cls-1 {
        fill: #fff;
        stroke-width: 0px;
      }
    </style>
  </defs>
  <path id="edit" class="cls-1" d="M24.2,49c-4.7,2.4-8.9,3.6-10.4,2.2s-.2-5.5,2.1-10c1,.1,2.8.8,5.2,3.3,1.8,1.8,2.7,3.4,3.1,4.6ZM40.4,14.9c1.2.3,3.1,1.2,5.6,3.7,2.6,2.6,3.6,4.7,3.9,6,2.1-3.9,2.6-7.4.2-9.8s-6-1.9-9.8,0ZM44.1,20.6c-3.4-3.4-5.6-3.9-6.7-3.9-4.2,2.8-8.4,6.9-11.6,10.1-2.9,2.9-6.5,7.9-9,12.7.8-.1,2.8,0,6,3.3,2.3,2.3,3.1,4,3.4,5.2,4.5-2.5,9.1-5.8,12-8.8,3.5-3.5,7.2-7.5,9.9-11.5-.1-1.2-.8-3.9-4-7.1Z"/>
</svg>