<?xml version="1.0" encoding="UTF-8"?>
<svg id="Layer_1" data-name="Layer 1" xmlns="http://www.w3.org/2000/svg" version="1.1" viewBox="0 0 65 65">
  <defs>
    <style>
      .cls-1 {
        fill: #fff;
        stroke-width: 0px;
      }
    </style>
  </defs>
  <path id="home" class="cls-1" d="M29.5,15.2l-15,17c-.6.7-.3,1.8.5,2.1s.9.3,1.3.5v9.8c0,3.7,3,6.6,6.6,6.6h5.4v-12.3c0-1.1.9-2,2-2h3.9c1.1,0,2,.9,2,2v12.3h5.4c3.7,0,6.6-3,6.6-6.6v-9c.7-.3,1.5-.7,2.1-1.1s.8-1.3.3-1.9l-15.3-17.4c-1.5-1.7-4.2-1.7-5.7,0Z"/>
</svg>