<?xml version="1.0" encoding="UTF-8"?>
<svg id="Layer_1" data-name="Layer 1" xmlns="http://www.w3.org/2000/svg" version="1.1" viewBox="0 0 65 65">
  <defs>
    <style>
      .cls-1 {
        fill: #fff;
        stroke-width: 0px;
      }
    </style>
  </defs>
  <path id="logout" class="cls-1" d="M52.9,32.5c0,1-.5,2-1.3,2.6l-11.8,11.9c-.5.4-1.2.6-1.9.6s-1-.1-1.5-.4c-1-.5-1.7-1.6-1.7-2.8v-3.7h-7.5c-1.1,0-3.2-3.3-3.2-8.3s2-8.2,3.2-8.2h7.4v-3.7c0-1.2.7-2.3,1.7-2.8,1-.5,2.3-.4,3.4.2l11.8,11.9c.9.6,1.4,1.6,1.4,2.6ZM27.7,43.7h-4.9c-.9,0-3-4.3-3-11.3s2-11.1,3-11.1h4.9c1.5,0,2.7-1.2,2.7-2.7v-.7c0-1.5-1.2-2.7-2.7-2.7h-10.5c-2.3,0-5.2,6.2-5.2,17.2s2.8,17.5,6.9,17.5h8.8c1.5,0,2.7-1.2,2.7-2.7v-.7c0-1.5-1.2-2.7-2.7-2.7Z"/>
</svg>