<?xml version="1.0" encoding="UTF-8"?>
<svg id="Layer_1" data-name="Layer 1" xmlns="http://www.w3.org/2000/svg" version="1.1" viewBox="0 0 65 65">
  <defs>
    <style>
      .cls-1 {
        fill: #fff;
        stroke-width: 0px;
      }
    </style>
  </defs>
  <path id="language" class="cls-1" d="M32.5,13.7h0c-8.1,0-15.5,5.1-17.9,12.8-4.3,13.9,7.1,26.6,20.7,24.6,8.3-1.2,14.9-8.1,15.8-16.5,1.3-11.4-7.6-21-18.7-21ZM44.7,43c-.9-.6-1.8-1.1-2.7-1.5s-.5-.6-.4-.9c.8-1.9,1.3-4,1.5-6.1s.3-.7.7-.7h3.9c.4,0,.8.4.7.8-.4,3.1-1.7,6-3.7,8.3h0ZM17.2,33.8h3.9c.4,0,.7.3.7.6.2,2.1.7,4.1,1.5,6.1s0,.7-.3.9c-.8.4-1.5.8-2.2,1.2s-.7.1-.9-.1c-1.8-2.3-3-5-3.4-7.9s.3-.8.7-.8ZM20.8,22.4c.7.4,1.4.8,2.2,1.2s.5.6.4.9c-.8,1.9-1.3,4-1.5,6.1s-.3.7-.7.7h-3.9c-.4,0-.8-.4-.7-.8.4-2.9,1.5-5.6,3.3-7.8s.6-.3.9-.2ZM35.1,19c.7.8,1.4,1.7,2,2.6s0,1-.4,1.1c-.7.2-1.4.3-2,.3s-.8-.3-.8-.7v-2.8c0-.6.8-1,1.2-.5ZM30.3,22.9c-.6,0-1.3-.2-1.9-.4s-.7-.7-.4-1.1c.6-.8,1.2-1.6,1.9-2.3s1.3-.2,1.3.5v2.6c0,.4-.4.8-.8.7ZM26.1,24.7c1.4.4,2.9.7,4.4.9s.6.3.6.7v4.1c0,.4-.3.7-.7.7h-5.2c-.4,0-.8-.4-.7-.8.2-2,.8-3.9,1.6-5.6h0ZM31.2,34.6v4.1c0,.4-.3.7-.6.7-1.3.1-2.5.3-3.7.7s-.7,0-.9-.4c-.6-1.6-1-3.2-1.3-4.9s.3-.8.7-.8h5.1c.4,0,.7.3.7.7ZM31.2,42.8v2.8c0,.6-.8,1-1.2.5-.7-.8-1.4-1.7-2-2.6s0-1,.4-1.1c.7-.2,1.4-.3,2-.3s.8.3.8.7ZM34.7,42.1c.6,0,1.3.2,1.9.4s.7.7.4,1.1c-.6.8-1.2,1.6-1.9,2.3s-1.3.2-1.3-.5v-2.6c0-.4.4-.8.8-.7ZM38.3,40.1c-1.2-.3-2.5-.6-3.8-.7s-.6-.3-.6-.7v-4.1c0-.4.3-.7.7-.7h5.2c.4,0,.8.4.7.8-.2,1.7-.6,3.5-1.3,5.1s-.5.5-.9.4ZM33.8,30.4v-4.1c0-.4.3-.7.6-.7,1.3-.1,2.5-.3,3.7-.7s.7,0,.9.4c.6,1.6,1,3.2,1.3,4.9s-.3.8-.7.8h-5.1c-.4,0-.7-.3-.7-.7ZM36.9,17c1.8.5,3.5,1.3,5,2.4s.4.9,0,1.2-.7.4-1,.5-.7,0-.9-.3c-.8-1.4-1.8-2.7-2.9-3.9ZM24.8,21.4c-.6-.2-1.1-.5-1.6-.8s-.5-.9-.1-1.2c1.5-1.1,3.3-1.9,5.1-2.4-1.3,1.3-2.4,2.8-3.4,4.4h0ZM24.2,43.8c.3-.2.7,0,.9.3.8,1.4,1.8,2.7,2.9,3.9-1.8-.5-3.5-1.3-5-2.4s-.4-.9,0-1.2.7-.4,1-.5ZM40.7,43.9c.4.2.7.3,1.1.5s.5.9.1,1.2c-1.5,1.1-3.3,1.9-5.1,2.4,1.1-1.2,2.2-2.5,3-3.9s.6-.4.9-.3ZM43.1,30.5c-.2-2.1-.7-4.1-1.5-6.1s0-.7.3-.9c.8-.4,1.5-.8,2.2-1.2s.7-.1.9.1c1.8,2.3,3,5,3.4,7.9,0,.4-.3.8-.7.8h-3.9c-.4,0-.7-.3-.7-.6Z"/>
</svg>