<?xml version="1.0" encoding="UTF-8"?>
<svg id="Layer_1" data-name="Layer 1" xmlns="http://www.w3.org/2000/svg" version="1.1" viewBox="0 0 65 65">
  <defs>
    <style>
      .cls-1 {
        fill: #fff;
        stroke-width: 0px;
      }
    </style>
  </defs>
  <path id="wifi-close" class="cls-1" d="M36.4,50.5c0,2.2-1.7,3.9-3.9,3.9s-3.9-1.7-3.9-3.9,1.7-3.9,3.9-3.9,3.9,1.7,3.9,3.9ZM22.1,51L47.2,12.4c.3-.4.2-1-.3-1.3l-.6-.4c-.4-.3-1-.2-1.3.3l-4.2,6.4c-2.7-.6-5.5-.9-8.4-.9-7.5,0-14.5,2.1-20.5,5.7-1.2.7-1.5,2.2-.7,3.3l1,1.4c.7.9,2,1.2,3,.6,5-3,10.9-4.7,17.2-4.7s3.1.1,4.7.3l-2.6,3.9c-.7,0-1.4,0-2.1,0-5.2,0-10,1.3-14.2,3.7-1.2.7-1.5,2.2-.7,3.3l1,1.4c.7.9,1.9,1.2,2.9.6,2.7-1.5,5.8-2.4,9.1-2.7l-3.1,4.8c-.9.3-1.8.6-2.7.9-1.3.6-1.7,2.3-.9,3.4l.4.5-4.4,6.7c-.3.4-.2,1,.3,1.3l.6.4c.4.3,1,.2,1.3-.3ZM40.3,39c-1.5-.7-3.2-1.2-4.9-1.4l-4.1,6.1c.4,0,.8,0,1.2,0,1.7,0,3.4.3,4.9.9,1,.4,2.1,0,2.7-.7l1-1.4c.9-1.2.4-2.8-.9-3.4ZM53,22.2c-1.8-1.1-3.6-2-5.6-2.8l-3.6,5.3c2,.7,4,1.6,5.8,2.7,1,.6,2.3.4,3-.6l1-1.4c.8-1.1.5-2.6-.7-3.3ZM46.7,30.6c-1.7-.9-3.4-1.7-5.2-2.2l-3.6,5.5c2,.5,3.9,1.2,5.7,2.1,1,.5,2.2.3,2.9-.6l1-1.4c.8-1.1.5-2.7-.7-3.3Z"/>
</svg>