<?xml version="1.0" encoding="UTF-8"?>
<svg id="Layer_1" data-name="Layer 1" xmlns="http://www.w3.org/2000/svg" version="1.1" viewBox="0 0 65 65">
  <defs>
    <style>
      .cls-1 {
        fill: #fff;
        stroke-width: 0px;
      }
    </style>
  </defs>
  <path id="password" class="cls-1" d="M51,32.8c0-13.8-4.5-19.6-18.3-19.6s-18.7,4.3-18.7,19.6,6.9,19.1,18.7,19.1c19.3,0,18.3-11.2,18.3-19.1ZM26.2,32.8c-.2.2-.6.4-1,.5l-.5.2,1.4,2c-.1.4-.4.8-.7,1.1-.3.3-.7.4-1.2.4s-.8-.1-1.1-.4c-.2-.3-.5-.6-.7-1l-.2-.4-1.1,1.7c-.2,0-.5,0-.7,0-.7,0-1.2-.1-1.5-.4-.3-.3-.5-.6-.5-1.1s0-.5.2-.7c.1-.2.3-.5.5-.7l.4-.6-1.8-.5c-.1-.4-.2-.7-.2-1.1s.1-.9.4-1.2c.3-.3.7-.4,1.2-.4s.3,0,.5,0,.3,0,.5.1h.4c0,.1,0-2,0-2,.2,0,.4-.2.7-.4.3-.1.6-.2,1-.2s.8.1,1.1.4c.3.2.4.6.4,1.1s0,.4,0,.6c0,.2,0,.5,0,.7l1.8-.7c.3.2.6.4.9.7.2.3.4.7.4,1.1s-.1.8-.4,1ZM36.7,32.8c-.2.2-.6.4-1,.5l-.5.2,1.4,2c-.1.4-.4.8-.7,1.1-.3.3-.7.4-1.2.4s-.8-.1-1.1-.4c-.2-.3-.5-.6-.7-1l-.2-.4-1.1,1.7c-.2,0-.5,0-.7,0-.7,0-1.2-.1-1.5-.4-.3-.3-.5-.6-.5-1.1s0-.5.2-.7c.1-.2.3-.5.5-.7l.4-.6-1.8-.5c-.1-.4-.2-.7-.2-1.1s.1-.9.4-1.2c.3-.3.7-.4,1.2-.4s.3,0,.5,0,.3,0,.5.1h.4c0,.1,0-2,0-2,.2,0,.4-.2.7-.4.3-.1.6-.2,1-.2s.8.1,1.1.4c.3.2.4.6.4,1.1s0,.4,0,.6c0,.2,0,.5,0,.7l1.8-.7c.3.2.6.4.9.7.2.3.4.7.4,1.1s-.1.8-.4,1ZM47.1,32.8c-.2.2-.6.4-1,.5l-.5.2,1.4,2c-.1.4-.4.8-.7,1.1-.3.3-.7.4-1.2.4s-.8-.1-1.1-.4c-.2-.3-.5-.6-.7-1l-.2-.4-1.1,1.7c-.2,0-.5,0-.7,0-.7,0-1.2-.1-1.5-.4-.3-.3-.5-.6-.5-1.1s0-.5.2-.7c.1-.2.3-.5.5-.7l.4-.6-1.8-.5c-.1-.4-.2-.7-.2-1.1s.1-.9.4-1.2c.3-.3.7-.4,1.2-.4s.3,0,.5,0,.3,0,.5.1h.4c0,.1,0-2,0-2,.2,0,.4-.2.7-.4.3-.1.6-.2,1-.2s.8.1,1.1.4c.3.2.4.6.4,1.1s0,.4,0,.6c0,.2,0,.5,0,.7l1.8-.7c.3.2.6.4.9.7.2.3.4.7.4,1.1s-.1.8-.4,1Z"/>
</svg>