<?xml version="1.0" encoding="UTF-8"?>
<svg id="Layer_1" data-name="Layer 1" xmlns="http://www.w3.org/2000/svg" version="1.1" viewBox="0 0 65 65">
  <defs>
    <style>
      .cls-1 {
        fill: #fff;
        stroke-width: 0px;
      }
    </style>
  </defs>
  <path class="cls-1" d="M43.4,14.2c-1-.3-2.1-.1-2.8.5l-9,7.5c-.6.5-1.5.8-2.4.8h-7.2c-1.5,0-3.4,3.9-3.4,8.7s1.9,10.2,3.4,10.2h7.2c.9,0,1.7.3,2.3.8l9.1,7.5c.5.4,1.2.7,1.8.7s.7,0,.9-.1c1-.3,1.6-1.1,1.6-2,0,0,1.5-7.9,1.5-17.3s-1.5-15.2-1.5-15.2c0-.9-.6-1.7-1.6-2.1Z"/>
</svg>