<?xml version="1.0" encoding="UTF-8"?>
<svg id="Layer_1" data-name="Layer 1" xmlns="http://www.w3.org/2000/svg" version="1.1" viewBox="0 0 65 65">
  <defs>
    <style>
      .cls-1 {
        fill: #fff;
        stroke-width: 0px;
      }
    </style>
  </defs>
  <path id="plus" class="cls-1" d="M51.2,39c.4-.7.8-1.6,1.1-2.7s.5-2.3.5-3.6c0-2.3-.5-4-1.5-5-1-1-2.3-1.6-3.8-1.6h-8.5v-8.5c0-1.6-.5-2.8-1.6-3.8-1-1-2.7-1.5-5-1.5-1.3,0-2.5.2-3.6.5s-2,.7-2.7,1.1v12.2s-12.2,0-12.2,0c-.3.7-.7,1.6-1.1,2.7-.4,1.1-.6,2.3-.6,3.6,0,2.3.5,4,1.5,5,1,1,2.3,1.6,3.8,1.6h8.5v8.5c0,1.6.5,2.8,1.6,3.8,1,1,2.7,1.5,5,1.5,1.3,0,2.5-.2,3.6-.6,1.1-.4,2-.7,2.7-1.1v-12.2h12.2Z"/>
</svg>