<?xml version="1.0" encoding="UTF-8"?>
<svg id="Layer_1" data-name="Layer 1" xmlns="http://www.w3.org/2000/svg" version="1.1" viewBox="0 0 65 65">
  <defs>
    <style>
      .cls-1 {
        fill: #fff;
        stroke-width: 0px;
      }
    </style>
  </defs>
  <path id="menü-list" class="cls-1" d="M48.9,35.6c-.6.7-1.4,1-2.4,1h-30.2c-.2-.4-.4-1-.7-1.7-.2-.7-.4-1.5-.4-2.3,0-1.5.3-2.5.9-3.2.6-.7,1.4-1,2.4-1h30.2c.3.4.5,1,.7,1.7.2.7.3,1.5.3,2.3,0,1.5-.3,2.5-.9,3.2ZM49.8,20.3c0-.8-.1-1.6-.3-2.3-.2-.7-.5-1.3-.7-1.7h-30.2c-1,0-1.8.3-2.4,1-.6.7-.9,1.7-.9,3.2,0,.8.1,1.6.4,2.3.2.7.5,1.3.7,1.7h30.2c1,0,1.8-.3,2.4-1,.6-.7.9-1.7.9-3.2ZM48.9,47.8c.6-.7.9-1.7.9-3.2,0-.8-.1-1.6-.3-2.3-.2-.7-.5-1.3-.7-1.7h-30.2c-1,0-1.8.3-2.4,1-.6.7-.9,1.7-.9,3.2,0,.8.1,1.6.4,2.3.2.7.5,1.3.7,1.7h30.2c1,0,1.8-.3,2.4-1Z"/>
</svg>