<?xml version="1.0" encoding="UTF-8"?>
<svg id="Layer_1" data-name="Layer 1" xmlns="http://www.w3.org/2000/svg" version="1.1" viewBox="0 0 65 65">
  <defs>
    <style>
      .cls-1 {
        fill: #fff;
        stroke-width: 0px;
      }
    </style>
  </defs>
  <path class="cls-1" d="M55.5,40.1c0,5-8.7,12.5-11.5,10-.8-.7-1.4-2.4-1.7-4.6l-15.8,1c-3.8,0-3.8-4.8-3.8-6.6s0-6.3,3.8-6.3l15.9,1.6c.3-2.3.9-4.2,1.7-5.1,2.6-3,11.5,4.9,11.5,10ZM38.5,31.4c3.8,0,3.8-4.8,3.8-6.6s0-6.3-3.8-6.3l-15.9,1.6c-.3-2.3-.9-4.2-1.7-5.1-2.6-3-11.5,4.9-11.5,10s8.7,12.5,11.5,10c.8-.7,1.4-2.4,1.7-4.6l15.8,1Z"/>
</svg>