<?xml version="1.0" encoding="UTF-8"?>
<svg id="Layer_1" data-name="Layer 1" xmlns="http://www.w3.org/2000/svg" version="1.1" viewBox="0 0 65 65">
  <defs>
    <style>
      .cls-1 {
        fill: #fff;
        stroke-width: 0px;
      }
    </style>
  </defs>
  <path id="star2" class="cls-1" d="M37.2,12l1.6,1.5c.4.4.9.6,1.5.5h2.1c3.6-.3,6.8,2.3,7.2,5.9l.2,2.1c0,.5.4,1,.8,1.4l1.7,1.3c2.9,2.2,3.6,6.2,1.6,9.2l-1.2,1.8c-.3.5-.4,1-.3,1.6l.5,2.1c.8,3.5-1.2,7.1-4.7,8.1l-2.1.6c-.5.2-1,.5-1.2,1l-1,1.9c-1.6,3.2-5.5,4.6-8.8,3.2l-2-.8c-.5-.2-1.1-.2-1.6,0l-2,.8c-3.3,1.4-7.2,0-8.8-3.2l-1-1.9c-.2-.5-.7-.9-1.2-1l-2.1-.6c-3.5-1-5.5-4.6-4.7-8.1l.5-2.1c.1-.5,0-1.1-.3-1.6l-1.2-1.8c-2-3-1.3-7.1,1.6-9.2l1.7-1.3c.4-.3.7-.8.8-1.4l.2-2.1c.4-3.6,3.6-6.2,7.2-6h2.1c.5.2,1.1,0,1.5-.4l1.6-1.5c2.6-2.5,6.7-2.5,9.4,0Z"/>
</svg>