<?xml version="1.0" encoding="UTF-8"?>
<svg id="Layer_1" data-name="Layer 1" xmlns="http://www.w3.org/2000/svg" version="1.1" viewBox="0 0 65 65">
  <defs>
    <style>
      .cls-1 {
        fill: #fff;
        stroke-width: 0px;
      }
    </style>
  </defs>
  <path id="arrow-right" class="cls-1" d="M32.5,44.1s0,0,0,0c0,0,0,0,0,0,0,0,0,0,0,0,1.1,0,2.1-.4,2.9-1.3l15.4-15.4c-.2-.6-.5-1.3-.9-2.2s-1-1.6-1.7-2.3c-1.3-1.3-2.5-2-3.6-2-1.1,0-2.1.4-3,1.3l-9.1,9.1-9.1-9.1c-.9-.9-1.9-1.3-3-1.3-1.1,0-2.3.7-3.6,2-.7.7-1.3,1.5-1.7,2.3-.4.8-.7,1.6-.9,2.1l15.4,15.4c.9.9,1.8,1.3,2.9,1.3,0,0,0,0,0,0Z"/>
</svg>