<?xml version="1.0" encoding="UTF-8"?>
<svg id="Layer_1" data-name="Layer 1" xmlns="http://www.w3.org/2000/svg" version="1.1" viewBox="0 0 65 65">
  <defs>
    <style>
      .cls-1 {
        fill: #fff;
        stroke-width: 0px;
      }
    </style>
  </defs>
  <path id="setting" class="cls-1" d="M54.5,35v-5l-5.1-2.5-1.4-3.4,1.9-5.4-3.6-3.6-5.4,1.9-3.4-1.4-2.5-5.1h-5l-2.5,5.1-3.4,1.4s-5.2-2-5.4-1.9c-.2.1-3.6,3.6-3.6,3.6h0l1.9,5.4-1.4,3.4-5.1,2.5v5s0,0,0,0c0,0,5.3,2.4,5.1,2.5-.1,0,1.4,3.4,1.4,3.4l-1.9,5.4,3.6,3.6,5.4-1.9,3.4,1.4,2.5,5.1h5l2.5-5.1,3.4-1.4,5.4,1.9,3.6-3.6-1.9-5.4,1.4-3.4,5.1-2.5ZM32.5,43.2c-5.9,0-10.7-4.8-10.7-10.7s4.8-10.7,10.7-10.7,10.7,4.8,10.7,10.7-4.8,10.7-10.7,10.7ZM38.3,32.5c0,3.2-2.6,5.8-5.8,5.8s-5.8-2.6-5.8-5.8,2.6-5.8,5.8-5.8,5.8,2.6,5.8,5.8Z"/>
</svg>