<?xml version="1.0" encoding="UTF-8"?>
<svg id="Layer_1" data-name="Layer 1" xmlns="http://www.w3.org/2000/svg" version="1.1" viewBox="0 0 65 65">
  <defs>
    <style>
      .cls-1 {
        fill: #fff;
        stroke-width: 0px;
      }
    </style>
  </defs>
  <path class="cls-1" d="M33.6,14.2c-1-.3-2.1-.1-2.8.5l-9,7.5c-.6.5-1.5.8-2.4.8h-7.2c-1.5,0-3.4,3.9-3.4,8.7s1.9,10.2,3.4,10.2h7.2c.9,0,1.7.3,2.3.8l9.1,7.5c.5.4,1.2.7,1.8.7s.7,0,.9-.1c1-.3,1.6-1.1,1.6-2,0,0,1.5-7.9,1.5-17.3s-1.5-15.2-1.5-15.2c0-.9-.6-1.7-1.6-2.1Z"/>
  <path class="cls-1" d="M38.3,26.3c.1-.2.3-.5.5-.7s.4-.5.7-.7c.3-.2.6-.4,1-.5.4-.1.8-.2,1.3-.2s1.2.1,1.7.4c.5.3,1,.7,1.5,1.3l2.5,3.2,3.7-4.6c.2,0,.4-.1.7-.2.3,0,.6,0,.9,0,1,0,1.8.2,2.3.6.6.4.8.9.8,1.4s-.2.9-.5,1.3c-.3.4-.7.9-1.3,1.4l-3.3,3.4,5.3,6.2c-.2.7-.5,1.2-1.1,1.6-.6.4-1.3.6-2.3.6s-1.2-.1-1.6-.4c-.5-.3-.9-.7-1.4-1.3l-2.6-3.4-4.1,5.1c-.2,0-.3,0-.5,0s-.3,0-.5,0c-1.2,0-2.1-.2-2.7-.6-.6-.4-.9-.9-.9-1.5s.1-1,.4-1.3c.3-.4.7-.8,1.1-1.3l3.4-3.6-5.1-6Z"/>
</svg>