<?xml version="1.0" encoding="UTF-8"?>
<svg id="Layer_1" data-name="Layer 1" xmlns="http://www.w3.org/2000/svg" version="1.1" viewBox="0 0 65 65">
  <defs>
    <style>
      .cls-1 {
        fill: #fff;
        stroke-width: 0px;
      }
    </style>
  </defs>
  <path id="music" class="cls-1" d="M49.7,15.2c0-1.2-1.1-2-2.2-1.7l-21.6,3.3c-.8.2-1.4.9-1.4,1.7v21.7c-1.2-.2-2.5-.2-3.8.2-3.8,1.1-6.2,4.4-5.3,7.4s4.6,4.6,8.4,3.6c3.4-.9,5.7-3.7,5.5-6.4h0v-20c0-.3.2-.6.5-.7l14.1-2c.5-.1,1,.2,1,.7v13.1c-1.2-.2-2.5-.2-3.8.2-3.8,1.1-6.2,4.4-5.3,7.4.8,3,4.6,4.6,8.4,3.6,3.4-.9,5.7-3.7,5.5-6.4h0V15.2Z"/>
</svg>