<?xml version="1.0" encoding="UTF-8"?>
<svg id="Layer_1" data-name="Layer 1" xmlns="http://www.w3.org/2000/svg" version="1.1" viewBox="0 0 65 65">
  <defs>
    <style>
      .cls-1 {
        fill: #fff;
        stroke-width: 0px;
      }
    </style>
  </defs>
  <path id="star" class="cls-1" d="M35.6,15.5l4.4,7c.3.5.7.8,1.2.9l8,2c2.6.7,3.7,3.8,1.9,5.9l-5.3,6.3c-.3.4-.5.9-.5,1.5l.6,8.2c.2,2.7-2.5,4.7-5,3.6l-7.7-3.1c-.5-.2-1-.2-1.5,0l-7.7,3.1c-2.5,1-5.2-.9-5-3.6l.6-8.2c0-.5-.1-1.1-.5-1.5l-5.3-6.3c-1.7-2.1-.7-5.2,1.9-5.9l8-2c.5-.1,1-.5,1.2-.9l4.4-7c1.4-2.3,4.8-2.3,6.2,0Z"/>
</svg>