<?xml version="1.0" encoding="UTF-8"?>
<svg id="Layer_1" data-name="Layer 1" xmlns="http://www.w3.org/2000/svg" version="1.1" viewBox="0 0 65 65">
  <defs>
    <style>
      .cls-1 {
        fill: #fff;
        stroke-width: 0px;
      }
    </style>
  </defs>
  <path class="cls-1" d="M34.1,14.2c-1-.3-2.1-.1-2.8.5l-9,7.5c-.6.5-1.5.8-2.4.8h-7.2c-1.5,0-3.4,3.9-3.4,8.7s1.9,10.2,3.4,10.2h7.2c.9,0,1.7.3,2.3.8l9.1,7.5c.5.4,1.2.7,1.8.7s.7,0,.9-.1c1-.3,1.6-1.1,1.6-2,0,0,1.5-7.9,1.5-17.3s-1.5-15.2-1.5-15.2c0-.9-.6-1.7-1.6-2.1Z"/>
  <path class="cls-1" d="M43.7,23.6c-1-1.1-2.7-1.2-3.7-.2-1.1,1-1.2,2.7-.2,3.8.5.6,4.9,5.8,0,11.3-.5.5-.7,1.2-.7,1.9,0,.7.3,1.3.9,1.8s1.1.7,1.8.7,1.5-.3,2-.9c6.5-7.3,2.8-15.3,0-18.4Z"/>
  <path class="cls-1" d="M49.9,18c-1-1.1-2.7-1.2-3.8-.2-.5.5-.9,1.1-.9,1.8,0,.7.2,1.4.7,1.9.4.5,9.9,11.3,0,22.3-.5.5-.7,1.2-.7,1.9,0,.7.3,1.3.9,1.8.5.5,1.1.7,1.8.7s1.5-.3,2-.9c12.9-14.6.1-29.3,0-29.4Z"/>
</svg>