<?xml version="1.0" encoding="UTF-8"?>
<svg id="Layer_1" data-name="Layer 1" xmlns="http://www.w3.org/2000/svg" version="1.1" viewBox="0 0 65 65">
  <defs>
    <style>
      .cls-1 {
        fill: #fff;
        stroke-width: 0px;
      }
    </style>
  </defs>
  <path id="arrow-right" class="cls-1" d="M20.9,32.5s0,0,0,0c0,0,0,0,0,0,0,0,0,0,0,0,0-1.1.4-2.1,1.3-2.9l15.4-15.4c.6.2,1.3.5,2.2.9s1.6,1,2.3,1.7c1.3,1.3,2,2.5,2,3.6,0,1.1-.4,2.1-1.3,3l-9.1,9.1,9.1,9.1c.9.9,1.3,1.9,1.3,3,0,1.1-.7,2.3-2,3.6-.7.7-1.5,1.3-2.3,1.7-.8.4-1.6.7-2.1.9l-15.4-15.4c-.9-.9-1.3-1.8-1.3-2.9,0,0,0,0,0,0Z"/>
</svg>