<?xml version="1.0" encoding="UTF-8"?>
<svg id="Layer_1" data-name="Layer 1" xmlns="http://www.w3.org/2000/svg" version="1.1" viewBox="0 0 65 65">
  <defs>
    <style>
      .cls-1 {
        fill: #fff;
        stroke-width: 0px;
      }
    </style>
  </defs>
  <path id="close" class="cls-1" d="M50.3,23.9c-.2-.8-.6-1.7-1.1-2.7s-1.3-2-2.2-2.9c-1.6-1.6-3.2-2.5-4.6-2.5-1.4,0-2.7.5-3.8,1.6l-6,6-6-6c-1.1-1.1-2.4-1.6-3.8-1.6-1.4,0-3,.9-4.6,2.5-.9.9-1.6,1.9-2.2,2.9s-.9,2-1.1,2.7l8.6,8.6-8.6,8.6c.2.7.6,1.6,1.2,2.7.5,1.1,1.2,2,2.1,2.9,1.6,1.6,3.2,2.5,4.6,2.5,1.4,0,2.7-.5,3.8-1.6l6-6,6,6c1.1,1.1,2.4,1.6,3.8,1.6,1.4,0,3-.9,4.6-2.5.9-.9,1.6-1.9,2.1-2.9.5-1.1.9-2,1.2-2.7l-8.6-8.6,8.6-8.6Z"/>
</svg>