<?xml version="1.0" encoding="UTF-8"?>
<svg id="Layer_1" data-name="Layer 1" xmlns="http://www.w3.org/2000/svg" version="1.1" viewBox="0 0 65 65">
  <defs>
    <style>
      .cls-1 {
        fill: #fff;
        stroke-width: 0px;
      }
    </style>
  </defs>
  <path id="bell-x" class="cls-1" d="M50.1,43v3c0,1.4-1.1,2.5-2.5,2.5h-5.7l-1.9-2.2,1.9-1.9c.6-.7,1.1-1.2,1.5-1.7.7-.9,1.1-2,1.1-3.1s-.7-2.8-2-3.7c-1.1-.7-2.4-1.1-4-1.1s-1,0-1.5.2c-.5.1-.9.2-1.3.4l-.6.3-2.3,2.8-.6-.8c-.8-1-1.5-1.6-2.4-2.1-.9-.5-1.9-.7-3-.7s-1.6.1-2.3.4c-.6.2-1.2.5-1.8.9-.5.4-1,.8-1.3,1.3-.3.4-.6.9-.8,1.4l-.7,1.5,5,5.8-2,2.1c-.1.1-.3.3-.4.4h-5.2c-1.4,0-2.5-1.1-2.5-2.5v-3c0-1.3,1-2.4,2.3-2.5-.2-2.3-.4-5.6-.4-7s-.8-16.6,10.6-18.7c0-2.8,2.3-5,5.1-5s5,2.2,5.1,5c12.5,1.9,10.6,17.5,10.6,19s-.2,4.5-.4,6.7c1.3,0,2.3,1.2,2.3,2.5ZM28.5,46.2l-3.6,3.8c-.5.6-.9,1-1.2,1.4-.3.4-.4.9-.4,1.4s.3,1.2.9,1.6c.6.4,1.6.7,2.9.7s.3,0,.5,0,.3,0,.5,0l4.4-5.4,2.8,3.6c.5.7,1,1.1,1.5,1.4.5.3,1.1.4,1.7.4,1,0,1.9-.2,2.5-.6.6-.4,1-1,1.2-1.7l-5.6-6.6,3.6-3.6c.6-.6,1-1.1,1.4-1.5.3-.4.5-.9.5-1.4s-.3-1.1-.9-1.5c-.6-.4-1.4-.6-2.5-.6s-.7,0-1,.1c-.3,0-.6.1-.8.2l-4,4.9-2.7-3.4c-.5-.7-1-1.1-1.6-1.4-.5-.3-1.1-.4-1.8-.4s-1,0-1.4.2c-.4.1-.8.3-1.1.5-.3.2-.6.5-.8.7s-.4.5-.5.8l5.5,6.4Z"/>
</svg>